<?xml version="1.0" standalone="no"?>
<!DOCTYPE svg PUBLIC "-//W3C//DTD SVG 20010904//EN"
 "http://www.w3.org/TR/2001/REC-SVG-20010904/DTD/svg10.dtd">
<svg version="1.0" xmlns="http://www.w3.org/2000/svg"
 width="218.000000pt" height="218.000000pt" viewBox="0 0 218.000000 218.000000"
 preserveAspectRatio="xMidYMid meet">
<metadata>
Created by potrace 1.14, written by Peter Selinger 2001-2017
</metadata>
<g transform="translate(0.000000,218.000000) scale(0.100000,-0.100000)"
fill="#000000" stroke="none">
<path d="M840 2166 c0 -2 11 -6 25 -8 13 -3 22 -1 19 3 -5 9 -44 13 -44 5z"/>
<path d="M741 2121 c-7 -5 -12 -14 -10 -20 2 -6 10 -2 17 9 14 22 13 23 -7 11z"/>
<path d="M920 2091 c0 -5 5 -13 10 -16 6 -3 10 -2 10 4 0 5 -4 13 -10 16 -5 3
-10 2 -10 -4z"/>
<path d="M940 2053 c0 -6 10 -15 23 -22 22 -11 22 -11 -3 -7 -24 5 -25 4 -23
-51 3 -72 9 -76 17 -13 7 55 13 59 46 32 22 -18 22 -19 6 -50 -15 -30 -56 -62
-56 -45 0 4 -5 0 -11 -10 -21 -35 -1 -28 45 16 53 50 57 73 19 108 -44 40 -63
52 -63 42z"/>
<path d="M743 2013 c-47 -16 -53 -34 -33 -102 l10 -34 -30 28 c-33 32 -39 60
-14 69 8 3 12 11 8 18 -5 8 -13 4 -25 -11 -17 -21 -17 -25 -4 -51 17 -32 56
-66 88 -76 12 -3 30 -16 40 -28 17 -21 17 -21 6 7 -7 15 -18 27 -26 27 -7 0
-18 12 -23 26 -13 34 -13 34 9 34 11 0 23 5 27 12 10 16 23 98 15 97 -3 0 -25
-7 -48 -16z"/>
<path d="M830 1960 c0 -5 5 -10 10 -10 6 0 10 5 10 10 0 6 -4 10 -10 10 -5 0
-10 -4 -10 -10z"/>
<path d="M851 1839 c10 -20 24 -25 33 -11 2 4 -6 12 -20 19 -21 10 -23 9 -13
-8z"/>
<path d="M900 1797 c0 -13 34 -42 65 -55 28 -11 28 -11 11 3 -11 8 -24 15 -29
15 -5 0 -17 10 -28 23 -10 12 -18 18 -19 14z"/>
<path d="M806 1782 c-3 -5 0 -9 7 -10 7 -1 26 -4 42 -7 29 -5 29 -5 3 4 -14 5
-31 12 -37 15 -5 4 -12 3 -15 -2z"/>
<path d="M560 1696 c0 -2 7 -7 16 -10 8 -3 12 -2 9 4 -6 10 -25 14 -25 6z"/>
<path d="M1060 1696 c0 -2 7 -7 16 -10 8 -3 12 -2 9 4 -6 10 -25 14 -25 6z"/>
<path d="M817 1664 c2 -6 13 -9 24 -7 15 4 18 2 13 -13 -5 -16 -4 -16 5 -4 16
23 14 27 -18 32 -20 3 -27 0 -24 -8z"/>
<path d="M593 1660 c2 -8 0 -23 -5 -32 -7 -14 -5 -18 11 -18 12 0 21 -10 26
-27 7 -26 8 -26 15 -8 8 21 8 21 23 -50 3 -11 5 -3 6 17 1 28 -5 41 -25 57
-16 13 -23 25 -18 33 4 7 3 9 -1 5 -5 -4 -15 3 -22 15 -8 13 -12 16 -10 8z"/>
<path d="M458 1638 c12 -6 22 -15 22 -20 0 -12 -14 -10 -30 5 -12 10 -12 9 0
-6 11 -15 9 -23 -17 -60 -17 -23 -41 -48 -54 -55 -19 -10 -20 -12 -5 -10 11 2
44 32 74 67 l54 64 -23 13 c-13 7 -28 13 -34 13 -5 0 0 -5 13 -11z"/>
<path d="M1106 1637 c3 -10 9 -15 12 -12 3 3 0 11 -7 18 -10 9 -11 8 -5 -6z"/>
<path d="M820 1631 c0 -5 7 -14 15 -21 16 -14 18 -10 9 14 -6 17 -24 22 -24 7z"/>
<path d="M1121 1594 c0 -11 3 -14 6 -6 3 7 2 16 -1 19 -3 4 -6 -2 -5 -13z"/>
<path d="M528 1533 c6 -2 18 -2 25 0 6 3 1 5 -13 5 -14 0 -19 -2 -12 -5z"/>
<path d="M918 1533 c7 -3 16 -2 19 1 4 3 -2 6 -13 5 -11 0 -14 -3 -6 -6z"/>
<path d="M602 1490 c0 -14 2 -19 5 -12 2 6 2 18 0 25 -3 6 -5 1 -5 -13z"/>
<path d="M668 1483 c-7 -25 7 -30 32 -12 13 9 13 10 -2 5 -11 -3 -18 1 -20 12
-3 13 -5 12 -10 -5z"/>
<path d="M333 1483 c-19 -7 -16 -53 2 -53 9 0 18 6 21 14 7 19 -8 44 -23 39z"/>
<path d="M940 1473 c0 -19 18 -25 37 -13 17 11 16 11 -1 5 -11 -3 -23 0 -28 7
-5 9 -8 10 -8 1z"/>
<path d="M655 1430 c-3 -5 -1 -10 4 -10 6 0 11 -11 11 -23 0 -13 9 -32 20 -42
11 -10 20 -21 20 -25 0 -4 -19 -20 -42 -37 -24 -17 -82 -70 -131 -117 -85 -84
-127 -138 -127 -165 0 -7 -13 -28 -29 -46 -22 -26 -32 -31 -47 -23 -18 9 -18
9 0 -6 11 -9 16 -19 12 -23 -4 -5 -16 3 -27 16 -10 13 -19 19 -19 13 0 -6 12
-20 27 -32 22 -17 24 -23 13 -30 -11 -7 -12 -14 -2 -35 11 -24 11 -26 -8 -20
-16 5 -31 -4 -65 -42 -25 -26 -45 -52 -45 -57 0 -5 -8 -18 -17 -28 -16 -18
-16 -18 1 -12 16 6 17 4 7 -15 -15 -27 -13 -31 44 -61 39 -21 47 -23 55 -10 5
8 6 18 3 24 -4 5 2 7 13 3 13 -4 11 -1 -6 10 -14 10 -40 33 -57 51 -27 27 -31
37 -23 53 6 10 18 19 27 19 12 0 13 -3 3 -15 -23 -28 1 -59 64 -79 18 -6 46 9
46 24 0 4 -13 13 -28 19 -15 6 -40 25 -55 41 l-27 28 25 20 c27 22 85 18 93
-7 3 -10 0 -11 -18 -1 -22 12 -50 8 -50 -7 1 -9 70 -43 87 -43 6 0 13 4 15 9
2 4 21 11 43 14 22 3 32 3 22 0 -26 -7 -19 -49 8 -45 11 2 35 5 54 7 41 4 66
27 57 50 -4 12 -12 15 -24 10 -9 -4 -30 -10 -47 -12 l-30 -4 30 25 c16 14 26
28 22 32 -3 4 -2 15 4 26 10 18 12 18 34 4 28 -19 35 -20 35 -6 0 6 -6 9 -12
8 -7 -2 -13 4 -13 12 0 23 32 24 40 1 3 -12 10 -21 15 -21 5 0 7 6 4 14 -4 11
0 13 15 9 12 -3 21 -10 21 -16 0 -6 7 -18 16 -28 28 -31 11 -50 -39 -46 -24 2
-50 7 -58 11 -8 4 -4 -1 9 -12 25 -23 29 -34 7 -26 -9 4 -15 0 -15 -9 0 -22
-64 -59 -108 -62 -25 -2 -44 3 -58 16 -20 19 -21 19 -39 -1 -16 -18 -16 -20
-2 -20 10 0 14 -5 11 -15 -4 -10 6 -20 29 -31 43 -21 93 -8 90 22 -1 12 9 26
29 37 26 15 29 15 24 2 -9 -23 15 -28 57 -10 46 19 44 19 50 -7 10 -37 16 -15
7 25 -7 31 -6 36 5 27 7 -6 24 -10 37 -9 12 1 45 1 71 1 47 -2 48 -3 46 -30
-2 -15 0 -32 3 -37 3 -6 2 -33 -4 -61 -9 -46 -8 -54 19 -105 21 -38 40 -59 66
-72 48 -24 94 -15 103 20 8 32 -2 108 -20 143 -8 17 -10 33 -5 41 5 8 9 30 9
49 0 39 13 65 31 65 7 0 14 6 17 13 2 7 -2 10 -12 6 -33 -13 -6 58 28 74 58
26 182 -15 170 -57 -4 -11 -2 -11 7 3 10 16 8 22 -12 38 -19 16 -21 21 -9 25
8 4 28 19 43 35 33 32 44 34 93 13 26 -10 34 -11 31 -2 -2 6 -23 16 -47 20
-50 10 -78 37 -54 50 8 4 19 5 24 2 6 -3 10 -1 10 5 0 6 -12 10 -27 8 -33 -4
-61 26 -81 84 -10 28 -10 42 -2 59 7 11 9 24 5 27 -3 3 -8 -4 -12 -16 -3 -12
-7 -22 -10 -22 -12 0 -64 32 -59 37 10 10 -15 33 -28 26 -6 -3 -8 -3 -4 2 17
19 -11 40 -51 39 -38 0 -49 8 -38 32 4 9 -32 26 -43 19 -6 -3 -10 -16 -10 -28
-1 -20 -1 -21 -11 -4 -8 14 -7 23 5 36 20 22 21 35 2 28 -7 -3 -19 0 -26 6
-10 9 -11 9 -6 0 8 -15 -10 -18 -19 -4 -3 6 -14 9 -25 8 -10 -1 -16 -5 -14 -9
3 -4 0 -8 -6 -8 -7 0 -9 -7 -6 -16 5 -14 4 -15 -8 -5 -11 10 -18 6 -37 -21
-12 -18 -24 -35 -25 -36 -7 -10 -51 14 -92 52 l-47 41 23 21 24 20 -26 38
c-14 21 -26 45 -26 52 0 16 -16 19 -25 4z m74 -190 c22 -22 45 -40 51 -40 20
0 10 -18 -15 -24 -13 -3 -37 -11 -52 -18 -15 -6 -31 -12 -35 -12 -11 -2 -22
-16 -11 -16 12 0 100 28 138 45 17 7 49 16 72 20 40 6 44 5 53 -20 5 -14 10
-42 10 -61 0 -28 -5 -36 -27 -46 -16 -6 -41 -16 -58 -23 -16 -7 -50 -16 -74
-20 -24 -4 -60 -14 -79 -22 -75 -31 -202 7 -202 61 0 48 137 215 177 216 6 0
30 -18 52 -40z m199 -10 c-9 -14 -14 -16 -20 -7 -6 9 -8 9 -8 0 0 -7 -5 -13
-11 -13 -20 0 -3 24 22 31 13 4 25 7 27 8 1 1 -3 -8 -10 -19z m52 -12 c0 -5
-4 -8 -10 -8 -5 0 -10 10 -10 23 0 18 2 19 10 7 5 -8 10 -18 10 -22z m50 4 c0
-15 -2 -15 -10 -2 -13 20 -13 33 0 25 6 -3 10 -14 10 -23z m-160 -2 c-11 -20
-30 -28 -30 -12 0 11 22 32 32 32 5 0 4 -9 -2 -20z m80 0 c0 -5 -5 -10 -11
-10 -5 0 -7 5 -4 10 3 6 8 10 11 10 2 0 4 -4 4 -10z m54 -42 c12 -47 7 -97
-12 -107 -27 -14 -40 -1 -40 44 0 22 -4 50 -7 63 -7 19 -4 22 23 22 22 0 31
-6 36 -22z m86 12 c21 0 29 -8 39 -36 7 -20 24 -52 38 -72 15 -23 23 -47 21
-67 -3 -26 -7 -30 -33 -30 -27 0 -30 3 -30 33 0 17 -3 32 -8 32 -4 0 -6 4 -3
8 3 4 -11 17 -31 27 -31 17 -36 18 -47 4 -9 -13 -11 -2 -13 49 -1 61 0 64 20
58 12 -3 33 -6 47 -6z m-593 -82 c-17 -48 -17 -57 8 -86 19 -23 37 -32 75 -37
49 -7 64 -20 36 -31 -20 -8 -173 35 -187 52 -12 15 3 46 44 92 23 25 31 28 24
10z m722 -19 c24 -26 32 -66 15 -73 -9 -3 -14 1 -14 12 0 9 -9 32 -20 50 -22
36 -11 43 19 11z m-181 -43 c7 -4 10 -12 7 -17 -3 -5 0 -6 8 -3 8 3 27 -10 44
-31 36 -42 35 -56 -16 -152 -31 -60 -63 -166 -55 -186 7 -21 -10 -34 -55 -40
-37 -5 -47 -2 -68 19 -17 17 -23 32 -20 47 3 12 11 42 17 67 7 25 19 72 27
105 8 33 20 70 25 82 8 15 7 36 -1 67 -6 25 -11 46 -11 48 0 6 87 1 98 -6z
m-123 -57 l0 -53 -43 -8 c-51 -8 -190 6 -205 21 -17 17 0 28 93 55 47 13 96
29 110 34 39 16 45 9 45 -49z m377 -34 l22 -46 -29 -24 c-17 -13 -35 -24 -42
-25 -7 0 -24 21 -39 46 l-28 47 28 23 c41 36 63 31 88 -21z m-785 -17 c24 -6
46 -14 49 -19 12 -19 -20 -90 -49 -108 -34 -21 -56 -16 -114 28 -45 34 -43 79
5 133 14 16 16 16 40 -3 14 -11 45 -24 69 -31z m669 -23 c23 -57 20 -66 -26
-63 -24 1 -38 6 -36 12 3 6 10 28 17 49 15 46 26 47 45 2z m-408 -20 c2 -2 1
-28 -3 -59 -7 -56 -19 -75 -22 -34 -1 11 -6 24 -11 27 -5 3 -14 15 -20 27 -13
25 -89 51 -105 35 -6 -6 -17 -11 -24 -11 -10 0 -10 6 -2 23 l11 23 86 -13 c48
-8 88 -16 90 -18z m152 8 c0 -5 -7 -39 -17 -77 l-16 -68 -41 6 c-66 11 -79 35
-55 104 8 24 17 32 42 35 59 7 87 7 87 0z m-473 -129 c-3 -3 -12 -4 -19 -1 -8
3 -5 6 6 6 11 1 17 -2 13 -5z m70 -30 c-3 -3 -12 -4 -19 -1 -8 3 -5 6 6 6 11
1 17 -2 13 -5z m173 -14 c0 -5 -5 -10 -11 -10 -5 0 -7 5 -4 10 3 6 8 10 11 10
2 0 4 -4 4 -10z m-445 -80 c3 -5 1 -10 -4 -10 -6 0 -11 5 -11 10 0 6 2 10 4
10 3 0 8 -4 11 -10z m709 -54 c21 8 20 -13 -1 -24 -11 -6 -14 -16 -9 -28 7
-18 8 -17 25 5 10 13 23 21 30 17 18 -11 13 -37 -8 -43 -11 -3 -21 -13 -24
-23 -5 -18 -3 -18 19 -4 31 21 64 10 64 -21 0 -25 -33 -55 -62 -55 -37 0 -107
115 -108 178 0 22 1 22 29 7 17 -8 37 -12 45 -9z m61 -6 c3 -5 1 -10 -4 -10
-6 0 -11 5 -11 10 0 6 2 10 4 10 3 0 8 -4 11 -10z"/>
<path d="M890 693 c0 -23 51 -52 86 -49 53 5 53 16 1 16 -35 0 -51 5 -67 22
-11 12 -20 17 -20 11z"/>
<path d="M460 1241 c0 -5 5 -13 10 -16 6 -3 10 -2 10 4 0 5 -4 13 -10 16 -5 3
-10 2 -10 -4z"/>
<path d="M1298 1193 c-29 -34 -28 -39 9 -35 31 4 35 2 30 -12 -4 -10 -3 -15 3
-11 20 13 10 35 -16 35 -32 0 -27 22 7 31 21 6 22 7 3 8 -11 1 -28 -7 -36 -16z"/>
<path d="M1400 1196 c0 -2 11 -6 25 -8 13 -3 22 -1 19 3 -5 9 -44 13 -44 5z"/>
<path d="M1489 1088 c4 -28 6 -29 9 -9 2 13 0 27 -5 32 -6 6 -7 -3 -4 -23z"/>
<path d="M1350 1050 c0 -6 7 -10 15 -10 8 0 15 2 15 4 0 2 -7 6 -15 10 -8 3
-15 1 -15 -4z"/>
<path d="M1490 1042 c0 -6 -8 -13 -17 -15 -16 -4 -16 -5 -1 -6 18 -1 34 16 24
26 -3 4 -6 1 -6 -5z"/>
<path d="M1390 1034 c0 -3 10 -9 23 -15 17 -7 12 -8 -23 -5 -37 4 -41 3 -20
-5 29 -12 76 -8 72 6 -2 10 -52 28 -52 19z"/>
<path d="M1370 961 c0 -6 10 -11 23 -11 12 0 29 -5 37 -10 13 -8 12 -10 -3
-10 -15 0 -16 -2 -5 -14 11 -12 14 -11 21 7 4 11 4 24 -1 29 -14 14 -72 21
-72 9z"/>
<path d="M1481 905 c29 -51 33 -56 24 -25 -4 14 -16 34 -27 45 -17 18 -17 15
3 -20z"/>
<path d="M1365 860 c-3 -5 -3 -15 0 -20 4 -6 3 -16 -2 -23 -5 -7 -10 -23 -11
-37 -1 -18 1 -21 8 -11 4 8 6 20 3 28 -3 7 0 13 6 13 6 0 11 -6 11 -12 0 -10
3 -9 9 1 6 9 11 10 15 2 8 -13 -36 -54 -67 -62 -12 -3 -28 -1 -36 5 -11 8 -15
8 -18 -1 -7 -21 -39 -15 -52 10 -7 14 -10 15 -6 3 4 -13 1 -17 -9 -13 -8 3
-19 0 -25 -7 -8 -9 7 -12 64 -14 83 -3 124 12 151 53 15 24 15 27 0 44 -20 22
-21 35 -1 27 17 -6 21 9 4 19 -6 4 -17 -1 -25 -11 -14 -17 -15 -17 -10 -1 6
19 1 23 -9 7z"/>
<path d="M1530 866 c0 -2 8 -10 18 -17 15 -13 16 -12 3 4 -13 16 -21 21 -21
13z"/>
<path d="M1540 815 c-7 -9 -11 -17 -9 -20 3 -2 10 5 17 15 14 24 10 26 -8 5z"/>
<path d="M1510 774 c9 -15 19 -20 34 -16 20 6 20 6 1 10 -11 2 -26 9 -34 16
-12 9 -12 8 -1 -10z"/>
<path d="M1132 764 c-7 -8 -17 -12 -23 -9 -5 4 -9 1 -9 -6 0 -7 8 -9 23 -5 37
11 51 14 70 15 10 1 15 6 12 11 -9 15 -58 11 -73 -6z"/>
<path d="M1466 713 c-6 -14 -5 -15 5 -6 7 7 10 15 7 18 -3 3 -9 -2 -12 -12z"/>
<path d="M1217 693 c-10 -9 -9 -23 2 -23 5 0 11 7 15 15 5 15 -5 20 -17 8z"/>
<path d="M1144 665 c-7 -29 18 -75 42 -75 8 0 12 5 9 10 -3 6 -12 10 -20 10
-17 0 -28 34 -20 60 3 11 4 20 1 20 -3 0 -8 -11 -12 -25z"/>
<path d="M1434 668 l-19 -23 23 19 c21 18 27 26 19 26 -2 0 -12 -10 -23 -22z"/>
<path d="M166 639 c-12 -23 -12 -28 -2 -20 12 11 29 51 21 51 -2 0 -10 -14
-19 -31z"/>
<path d="M655 644 c-11 -8 -30 -12 -42 -9 -16 4 -23 0 -28 -15 -3 -11 -15 -20
-26 -20 -10 0 -19 -5 -19 -11 0 -5 4 -8 9 -5 5 3 11 -3 14 -14 6 -25 23 -25
80 0 49 22 68 53 46 76 -12 11 -17 10 -34 -2z"/>
<path d="M1390 643 c0 -10 9 -24 20 -31 11 -7 20 -8 20 -3 0 5 -7 12 -16 15
-8 3 -13 10 -9 15 3 5 1 12 -5 16 -5 3 -10 -2 -10 -12z"/>
<path d="M1215 620 c-3 -5 -2 -10 4 -10 5 0 13 5 16 10 3 6 2 10 -4 10 -5 0
-13 -4 -16 -10z"/>
<path d="M1266 613 c-6 -14 -5 -15 5 -6 7 7 10 15 7 18 -3 3 -9 -2 -12 -12z"/>
<path d="M1308 623 c-19 -5 -26 -43 -8 -43 5 0 7 7 3 17 -5 13 -2 15 15 11 12
-4 22 -2 22 2 0 12 -12 17 -32 13z"/>
<path d="M350 609 c0 -4 -3 -14 -6 -23 -8 -20 38 -43 96 -47 40 -4 45 -2 45
16 0 13 9 22 25 26 16 4 5 7 -33 8 -41 1 -59 5 -63 16 -6 15 -64 18 -64 4z"/>
<path d="M710 580 c-19 -20 -53 -43 -75 -50 -22 -7 -35 -15 -29 -17 27 -9 151
74 142 96 -2 5 -19 -8 -38 -29z"/>
<path d="M170 594 c0 -9 -5 -12 -12 -8 -6 4 -8 3 -5 -3 3 -5 19 -8 35 -5 20 2
37 -4 58 -21 16 -13 45 -27 64 -30 19 -3 29 -3 23 0 -7 2 -13 12 -13 20 0 11
-6 14 -22 10 -12 -4 -29 -1 -38 6 -8 7 -32 20 -52 30 -34 15 -38 15 -38 1z"/>
<path d="M1228 595 c-9 -16 17 -34 33 -24 11 7 11 9 -3 9 -9 0 -18 5 -20 12
-3 7 -7 8 -10 3z"/>
<path d="M1350 596 c0 -9 30 -14 35 -6 4 6 -3 10 -14 10 -12 0 -21 -2 -21 -4z"/>
<path d="M1403 570 c-11 -16 -10 -18 2 -14 8 4 15 12 15 20 0 19 -3 18 -17 -6z"/>
<path d="M194 556 c11 -9 27 -16 35 -15 14 0 14 1 1 6 -8 3 -24 10 -35 15 -20
9 -20 9 -1 -6z"/>
<path d="M1336 562 c-3 -5 4 -16 15 -25 10 -9 19 -12 19 -6 0 15 -28 41 -34
31z"/>
<path d="M350 522 c0 -5 6 -12 14 -15 29 -11 134 -19 139 -11 3 5 -7 9 -21 10
-58 1 -108 8 -119 17 -8 6 -13 6 -13 -1z"/>
<path d="M275 510 c3 -5 8 -10 11 -10 2 0 4 5 4 10 0 6 -5 10 -11 10 -5 0 -7
-4 -4 -10z"/>
<path d="M296 272 c-12 -20 -4 -151 10 -163 12 -9 14 -2 14 46 l0 57 34 -29
c18 -15 31 -31 29 -35 -2 -4 8 -15 23 -24 22 -15 27 -15 35 -3 12 19 11 116
-1 140 -19 35 -30 20 -30 -43 l0 -63 -28 35 c-55 71 -79 93 -86 82z"/>
<path d="M774 269 c-3 -6 -3 -14 2 -18 5 -3 9 -36 9 -73 0 -81 18 -95 25 -20
l5 52 43 -50 c62 -72 72 -67 72 29 0 61 -3 80 -15 85 -12 4 -15 -5 -15 -54 0
-36 -5 -62 -12 -66 -7 -4 -10 -4 -6 0 7 8 -65 105 -87 119 -8 4 -17 2 -21 -4z"/>
<path d="M1197 273 c-11 -10 -8 -136 3 -153 10 -17 26 -6 32 23 3 16 7 15 40
-8 40 -27 61 -18 28 13 -18 17 -19 20 -5 32 21 17 19 42 -4 62 -40 34 -79 47
-94 31z m80 -46 c6 -10 -22 -37 -39 -37 -4 0 -8 13 -8 29 0 24 3 28 20 24 11
-3 23 -10 27 -16z"/>
<path d="M1770 204 c0 -47 4 -73 10 -69 5 3 7 0 4 -9 -7 -17 29 -30 67 -24 40
5 29 33 -14 36 -30 3 -37 7 -35 20 2 12 15 18 41 20 49 4 44 26 -6 30 -29 3
-37 7 -37 23 0 16 7 19 45 19 45 0 60 12 29 24 -9 3 -36 6 -60 6 l-44 0 0 -76z"/>
<path d="M1912 198 c2 -51 7 -83 15 -85 6 -2 13 7 15 22 l3 27 37 -26 c41 -28
67 -16 30 14 -19 16 -19 19 -5 33 24 23 9 62 -31 81 -63 30 -67 26 -64 -66z
m69 10 c-32 -25 -41 -23 -41 11 0 29 1 30 32 19 l31 -11 -22 -19z"/>
<path d="M44 251 c-11 -10 -27 -33 -34 -50 -12 -29 -11 -35 7 -59 23 -32 60
-39 88 -18 27 20 7 43 -23 27 -11 -6 -25 -11 -31 -11 -20 0 -11 48 13 77 20
23 26 25 40 14 13 -11 17 -11 22 2 3 9 3 21 -1 27 -10 17 -60 12 -81 -9z"/>
<path d="M187 224 c-15 -25 -25 -50 -21 -55 3 -5 0 -8 -7 -7 -16 4 -18 -44 -2
-49 6 -2 14 5 17 15 13 41 63 33 79 -12 2 -6 7 -8 11 -4 9 8 -13 128 -27 146
-15 19 -20 15 -50 -34z"/>
<path d="M460 260 c0 -5 8 -18 18 -28 22 -24 26 -38 25 -84 0 -22 5 -38 11
-38 13 0 76 121 76 145 0 28 -26 15 -44 -22 l-18 -37 -21 37 c-19 34 -47 50
-47 27z"/>
<path d="M629 257 c-42 -32 -49 -81 -18 -121 29 -37 89 -37 118 0 29 37 28 98
-1 118 -27 19 -77 20 -99 3z m87 -32 c18 -45 -37 -102 -74 -78 -20 13 -18 50
5 75 20 22 61 24 69 3z"/>
<path d="M1076 239 c-29 -35 -33 -74 -10 -107 19 -27 64 -29 88 -3 16 17 16
19 0 25 -10 4 -22 2 -28 -4 -5 -5 -18 -10 -28 -10 -26 0 -23 43 6 77 20 23 26
25 40 14 13 -11 17 -11 22 2 18 47 -52 51 -90 6z"/>
<path d="M1330 259 c0 -6 8 -13 18 -16 14 -3 17 -12 13 -46 -2 -23 -10 -46
-17 -52 -25 -19 0 -37 46 -33 47 3 64 22 31 33 -17 5 -21 15 -21 51 0 37 3 44
20 44 24 0 27 15 4 24 -26 10 -94 7 -94 -5z"/>
<path d="M1456 255 c3 -8 17 -15 30 -15 22 0 24 -4 24 -49 0 -54 7 -81 21 -81
5 0 9 29 9 65 l0 65 31 0 c20 0 29 4 27 13 -3 8 -30 13 -76 15 -61 2 -71 1
-66 -13z"/>
<path d="M1606 255 c4 -8 17 -15 30 -15 22 0 24 -4 24 -52 0 -57 11 -85 29
-74 7 5 8 28 4 66 l-6 60 37 0 c37 0 48 13 20 24 -9 3 -44 6 -80 6 -52 0 -62
-3 -58 -15z"/>
<path d="M2082 254 c-41 -28 -24 -69 32 -76 16 -1 31 -8 33 -15 7 -19 -45 -27
-73 -13 -31 17 -42 6 -19 -20 20 -22 73 -27 106 -10 44 24 7 90 -51 90 -24 1
-24 1 -6 15 11 8 29 12 43 9 28 -7 31 11 4 26 -27 14 -43 13 -69 -6z"/>
</g>
</svg>
